<svg width="75" height="45" viewBox="0 0 75 45" fill="none" xmlns="http://www.w3.org/2000/svg">
<path d="M30.2266 26.5684C30.2266 32.3301 28.9277 36.7734 26.3301 39.8984C23.752 43.0234 20.1094 44.5859 15.4023 44.5859C10.6562 44.5859 6.98438 43.0137 4.38672 39.8691C1.78906 36.7246 0.490234 32.291 0.490234 26.5684V18.7754C0.490234 13.0137 1.7793 8.57031 4.35742 5.44531C6.95508 2.32031 10.6172 0.757812 15.3438 0.757812C20.0703 0.757812 23.7324 2.33008 26.3301 5.47461C28.9277 8.61914 30.2266 13.0625 30.2266 18.8047V26.5684ZM20.3535 17.5156C20.3535 14.4492 19.9531 12.1641 19.1523 10.6602C18.3516 9.13672 17.082 8.375 15.3438 8.375C13.6445 8.375 12.4043 9.07812 11.623 10.4844C10.8613 11.8906 10.4512 14.0195 10.3926 16.8711V27.7695C10.3926 30.9531 10.793 33.2871 11.5938 34.7715C12.3945 36.2363 13.6641 36.9688 15.4023 36.9688C17.082 36.9688 18.3223 36.2559 19.123 34.8301C19.9238 33.3848 20.334 31.1289 20.3535 28.0625V17.5156ZM35.3828 9.54688C35.3828 6.91016 36.2422 4.78125 37.9609 3.16016C39.6797 1.53906 41.9844 0.728516 44.875 0.728516C47.8047 0.728516 50.1191 1.53906 51.8184 3.16016C53.5176 4.76172 54.3672 6.93945 54.3672 9.69336V11.8027C54.3672 14.4395 53.5176 16.5586 51.8184 18.1602C50.1191 19.7617 47.8242 20.5625 44.9336 20.5625C42.0625 20.5625 39.748 19.7715 37.9902 18.1895C36.252 16.5879 35.3828 14.4004 35.3828 11.627V9.54688ZM41.7402 11.8027C41.7402 12.8184 42.0234 13.6484 42.5898 14.293C43.1562 14.918 43.9375 15.2305 44.9336 15.2305C46.9844 15.2305 48.0098 13.9219 48.0098 11.3047V9.54688C48.0098 8.53125 47.7363 7.70117 47.1895 7.05664C46.6426 6.39258 45.8711 6.06055 44.875 6.06055C43.918 6.06055 43.1562 6.38281 42.5898 7.02734C42.0234 7.65234 41.7402 8.51172 41.7402 9.60547V11.8027ZM55.6562 33.541C55.6562 30.8848 56.5156 28.7559 58.2344 27.1543C59.9727 25.5527 62.2773 24.752 65.1484 24.752C68.0586 24.752 70.373 25.543 72.0918 27.125C73.8105 28.707 74.6699 30.9141 74.6699 33.7461V35.7969C74.6699 38.4531 73.8203 40.582 72.1211 42.1836C70.4219 43.7852 68.1172 44.5859 65.207 44.5859C62.3359 44.5859 60.0215 43.7949 58.2637 42.2129C56.5254 40.6113 55.6562 38.4238 55.6562 35.6504V33.541ZM61.9844 35.7969C61.9844 36.7148 62.2969 37.5254 62.9219 38.2285C63.5469 38.9121 64.3086 39.2539 65.207 39.2539C67.1016 39.2539 68.127 38.3555 68.2832 36.5586L68.3125 33.541C68.3125 32.5059 68.0293 31.6758 67.4629 31.0508C66.8965 30.4062 66.125 30.084 65.1484 30.084C64.2109 30.084 63.459 30.3867 62.8926 30.9922C62.3262 31.5781 62.0234 32.3789 61.9844 33.3945V35.7969ZM46.8086 40.8066L42.209 38.4922L63.0391 5.15234L67.6387 7.4668L46.8086 40.8066Z" fill="#CA0100"/>
</svg>
