<svg width="105" height="56" viewBox="0 0 105 56" fill="none" xmlns="http://www.w3.org/2000/svg">
<path d="M20.4922 44H10.5898V12.4766L0.863281 15.3184V7.81836L19.584 1.34375H20.4922V44ZM28.8863 55.4844L23.9059 53.1406L24.902 51.1484C26.2691 48.6094 26.982 46.1875 27.0406 43.8828V36.5586H34.9508L34.9215 42.916C34.902 45.1621 34.3258 47.4473 33.193 49.7715C32.0602 52.0957 30.6246 54 28.8863 55.4844ZM52.7785 27.5059C50.6496 29.4199 48.2668 30.377 45.6301 30.377C41.7629 30.377 38.6965 29.0684 36.4309 26.4512C34.1652 23.834 33.0324 20.3379 33.0324 15.9629C33.0324 13.2285 33.6672 10.6895 34.9367 8.3457C36.2062 6.00195 37.9836 4.14648 40.2687 2.7793C42.5734 1.41211 45.1125 0.728516 47.8859 0.728516C50.6984 0.728516 53.2375 1.44141 55.5031 2.86719C57.7883 4.27344 59.5656 6.27539 60.8352 8.87305C62.1047 11.4512 62.759 14.4297 62.798 17.8086V21.5879C62.798 26.2949 61.8703 30.377 60.0148 33.834C58.1789 37.291 55.552 39.9473 52.134 41.8027C48.716 43.6582 44.7316 44.5859 40.1809 44.5859H39.5656V36.6758L41.4406 36.6465C48.2375 36.3145 52.0168 33.2676 52.7785 27.5059ZM48.2961 23.2578C50.4445 23.2578 51.9875 22.3301 52.925 20.4746V16.373C52.925 13.6387 52.466 11.6172 51.548 10.3086C50.6301 9 49.3898 8.3457 47.8273 8.3457C46.4406 8.3457 45.2785 9.08789 44.341 10.5723C43.4035 12.0566 42.9348 13.8535 42.9348 15.9629C42.9348 18.1895 43.4133 19.9668 44.3703 21.2949C45.3273 22.6035 46.6359 23.2578 48.2961 23.2578ZM65.7008 9.54688C65.7008 6.91016 66.5602 4.78125 68.2789 3.16016C69.9977 1.53906 72.3023 0.728516 75.193 0.728516C78.1227 0.728516 80.4371 1.53906 82.1363 3.16016C83.8355 4.76172 84.6852 6.93945 84.6852 9.69336V11.8027C84.6852 14.4395 83.8355 16.5586 82.1363 18.1602C80.4371 19.7617 78.1422 20.5625 75.2516 20.5625C72.3805 20.5625 70.066 19.7715 68.3082 18.1895C66.5699 16.5879 65.7008 14.4004 65.7008 11.627V9.54688ZM72.0582 11.8027C72.0582 12.8184 72.3414 13.6484 72.9078 14.293C73.4742 14.918 74.2555 15.2305 75.2516 15.2305C77.3023 15.2305 78.3277 13.9219 78.3277 11.3047V9.54688C78.3277 8.53125 78.0543 7.70117 77.5074 7.05664C76.9605 6.39258 76.1891 6.06055 75.193 6.06055C74.2359 6.06055 73.4742 6.38281 72.9078 7.02734C72.3414 7.65234 72.0582 8.51172 72.0582 9.60547V11.8027ZM85.9742 33.541C85.9742 30.8848 86.8336 28.7559 88.5523 27.1543C90.2906 25.5527 92.5953 24.752 95.4664 24.752C98.3766 24.752 100.691 25.543 102.41 27.125C104.129 28.707 104.988 30.9141 104.988 33.7461V35.7969C104.988 38.4531 104.138 40.582 102.439 42.1836C100.74 43.7852 98.4352 44.5859 95.525 44.5859C92.6539 44.5859 90.3395 43.7949 88.5816 42.2129C86.8434 40.6113 85.9742 38.4238 85.9742 35.6504V33.541ZM92.3023 35.7969C92.3023 36.7148 92.6148 37.5254 93.2398 38.2285C93.8648 38.9121 94.6266 39.2539 95.525 39.2539C97.4195 39.2539 98.4449 38.3555 98.6012 36.5586L98.6305 33.541C98.6305 32.5059 98.3473 31.6758 97.7809 31.0508C97.2145 30.4062 96.443 30.084 95.4664 30.084C94.5289 30.084 93.777 30.3867 93.2105 30.9922C92.6441 31.5781 92.3414 32.3789 92.3023 33.3945V35.7969ZM77.1266 40.8066L72.527 38.4922L93.357 5.15234L97.9566 7.4668L77.1266 40.8066Z" fill="#CA0100"/>
</svg>
