<svg width="77" height="76" viewBox="0 0 77 76" fill="none" xmlns="http://www.w3.org/2000/svg">
<g clip-path="url(#clip0_2157_34648)">
<path d="M46.6512 17.6057C47.043 17.6057 47.4197 17.455 47.7211 17.1686L58.0279 6.85842C58.6156 6.27055 58.6156 5.30586 58.0279 4.718C57.4403 4.13013 56.4759 4.13013 55.8882 4.718L45.5814 15.0282C44.9937 15.6161 44.9937 16.5807 45.5814 17.1686C45.8827 17.455 46.2595 17.6057 46.6512 17.6057Z" fill="#CA0100"/>
<path d="M29.2789 17.1686C29.5802 17.4701 29.9569 17.6057 30.3487 17.6057C30.7405 17.6057 31.1172 17.455 31.4186 17.1686C32.0062 16.5807 32.0062 15.6161 31.4186 15.0282L21.1117 4.718C20.5241 4.13013 19.5597 4.13013 18.972 4.718C18.3843 5.30586 18.3843 6.27055 18.972 6.85842L29.2789 17.1686Z" fill="#CA0100"/>
<path d="M38.499 17.6057C39.3278 17.6057 40.0059 16.9274 40.0059 16.0984V7.55177C40.0059 6.72274 39.3278 6.04443 38.499 6.04443C37.6703 6.04443 36.9922 6.72274 36.9922 7.55177V16.0833C36.9922 16.9274 37.6703 17.6057 38.499 17.6057Z" fill="#CA0100"/>
<path d="M37.1139 2.08009C37.355 2.66796 37.9577 3.04479 38.5755 3.01464C39.1933 2.9845 39.7509 2.56244 39.9317 1.97458C40.1276 1.37165 39.9166 0.693343 39.4194 0.316508C38.907 -0.0753996 38.1988 -0.0904729 37.6563 0.256215C37.0687 0.648123 36.8426 1.43194 37.1139 2.08009Z" fill="#CA0100"/>
<path d="M69.4928 40.3213L53.9572 21.0876L54.0175 20.0928L53.475 20.4395H42.6257C42.4901 20.4395 42.3394 20.4696 42.2038 20.5148L33.7955 22.9416L25.2517 20.6053C24.7092 21.374 24.1366 22.1126 23.9257 22.3538C23.4736 22.8814 9.71607 40.9845 8.58594 42.4617L14.6887 50.6918C12.7298 52.787 12.7599 56.073 14.8092 58.1229C15.7133 59.0273 16.8585 59.5398 18.049 59.6604C18.0037 59.9318 17.9887 60.2031 17.9887 60.4744C17.9887 61.9064 18.5462 63.2479 19.5558 64.2427C20.5654 65.2527 21.9065 65.8104 23.3229 65.8104C23.338 65.8104 23.3681 65.8104 23.3832 65.8104C23.3832 65.8405 23.3832 65.8857 23.3832 65.9159C23.3832 67.3479 23.9407 68.6894 24.9503 69.6842C25.9599 70.6942 27.301 71.2519 28.7174 71.2519C29.0037 71.2519 29.275 71.2217 29.5462 71.1916C29.6668 72.3824 30.1791 73.528 31.0832 74.4474C32.1229 75.4875 33.4942 76.0151 34.8503 76.0151C36.2216 76.0151 37.5777 75.4875 38.6174 74.4474L39.4311 73.6335L39.7777 73.9048C40.8024 74.8996 42.1435 75.3971 43.4846 75.3971C44.8558 75.3971 46.212 74.8695 47.2517 73.8294C48.3065 72.7743 48.8339 71.3725 48.8188 69.9706C50.2051 69.9857 51.6065 69.4732 52.6764 68.4181C53.7312 67.3629 54.2585 65.9611 54.2435 64.5593C55.6901 64.5894 57.0764 64.0317 58.101 62.9916C59.1558 61.9365 59.6832 60.5347 59.6681 59.1329C61.0695 59.1479 62.4558 58.6354 63.5257 57.5652C65.3339 55.7564 65.575 52.9528 64.2339 50.8877L69.1311 40.6378L69.4928 40.3213ZM16.949 55.9825C16.0448 55.0781 16.0448 53.616 16.949 52.7116L18.7873 50.8726C18.8476 50.8123 18.9079 50.7671 18.9681 50.7219C19.3298 50.4355 19.7668 50.2546 20.2188 50.2094C20.2339 50.2094 20.249 50.2094 20.264 50.2094C20.3243 50.2094 20.3996 50.1943 20.4599 50.1943C21.0928 50.2094 21.6805 50.4657 22.1174 50.9179C22.9764 51.8223 22.9311 53.2995 22.012 54.2039L20.2339 55.9825C19.3147 56.8869 17.8531 56.8869 16.949 55.9825ZM23.3229 62.7957C22.7051 62.7957 22.1174 62.5545 21.6805 62.1174C21.2435 61.6803 21.0024 61.0924 21.0024 60.4744C21.0024 59.8564 21.2435 59.2685 21.6805 58.8314L25.2517 55.259C25.9298 54.5807 27.0147 54.3847 27.8887 54.8068C28.7928 55.2289 29.2901 56.2086 29.1695 57.2035C29.0942 57.731 28.8531 58.2285 28.4764 58.6053L24.9654 62.1023C24.5284 62.5545 23.9407 62.7957 23.3229 62.7957ZM30.3599 67.5589C29.9229 67.996 29.3353 68.2372 28.7174 68.2372C28.0996 68.2372 27.512 67.996 27.075 67.5589C26.638 67.1218 26.3969 66.5339 26.3969 65.9159C26.3969 65.2979 26.638 64.71 27.075 64.2729L30.6462 60.7005C31.3846 59.977 32.5448 59.8112 33.449 60.3387C34.2627 60.8211 34.6996 61.7556 34.549 62.6751C34.4736 63.1876 34.2325 63.67 33.8558 64.0317L30.3599 67.5589ZM38.2709 70.5283L36.4928 72.307C35.5887 73.2114 34.127 73.2114 33.2229 72.307C32.3188 71.4026 32.3188 69.9405 33.2229 69.0361L35.0613 67.1971C35.1216 67.1368 35.1818 67.0916 35.2421 67.0464C35.5435 66.8052 35.8901 66.6394 36.2668 66.564C36.2818 66.564 36.2818 66.564 36.2969 66.564C36.3572 66.549 36.4325 66.549 36.4928 66.5339C36.5229 66.5339 36.5531 66.5339 36.5681 66.5339C36.6284 66.5339 36.6736 66.5339 36.7339 66.5339C37.3668 66.549 37.9544 66.8052 38.3914 67.2574C38.4517 67.3177 38.4969 67.378 38.5421 67.4383C39.2202 68.3126 39.1298 69.6692 38.2709 70.5283ZM61.3859 55.4399C60.4818 56.3443 59.0202 56.3443 58.1161 55.4399C58.0859 55.4097 58.0558 55.3796 58.0106 55.3494L48.3065 45.5367C47.7188 44.9488 46.7695 44.9337 46.1668 45.5216C45.5791 46.1094 45.564 47.0591 46.1517 47.662L55.9613 57.5803C56.8654 58.4847 56.8654 59.9468 55.9613 60.8512C55.5243 61.2884 54.9366 61.5295 54.3188 61.5295C53.701 61.5295 53.1133 61.2884 52.6764 60.8512L46.1065 54.2189C45.5188 53.6311 44.5695 53.616 43.9668 54.2039C43.3791 54.7917 43.364 55.7413 43.9517 56.3443L50.4161 62.8711C50.4462 62.9163 50.4914 62.9464 50.5216 62.9916C51.4257 63.896 51.4257 65.3582 50.5216 66.2626C49.6174 67.167 48.1407 67.167 47.2517 66.2626L43.6654 62.645C43.0777 62.0571 42.1284 62.042 41.5257 62.6299C40.938 63.2178 40.9229 64.1674 41.5106 64.7703L44.9914 68.2975C45.0216 68.3427 45.0668 68.3728 45.0969 68.4181C46.001 69.3225 46.001 70.7846 45.0969 71.689C44.1928 72.5934 42.7311 72.5934 41.827 71.689C41.7216 71.5835 41.601 71.5081 41.4805 71.4177C41.375 71.3423 41.3599 71.2971 41.4051 71.1765C41.4503 71.0559 41.5257 70.9504 41.5859 70.8298C41.6462 70.6942 41.6914 70.5585 41.7366 70.4078C41.9627 69.6541 42.038 68.8552 41.9325 68.0865C41.7366 66.5942 40.9229 65.2527 39.6722 64.4086C39.0092 63.9563 38.2257 63.6549 37.427 63.5343C37.8188 61.8159 37.3517 59.9619 36.1311 58.6807C35.1366 57.6255 33.7805 57.0377 32.3339 57.0075C32.2736 57.0075 32.2284 57.0075 32.1681 57.0075C32.1983 55.6208 31.701 54.2491 30.7366 53.2392C29.7421 52.184 28.3859 51.5962 26.9394 51.566C26.5024 51.566 26.0654 51.6112 25.6585 51.7017C25.4777 50.4506 24.8448 49.2899 23.8955 48.4609C22.9462 47.6319 21.7558 47.1797 20.49 47.1646C19.149 47.1495 17.838 47.6319 16.8435 48.5363L11.012 40.668L24.9805 23.6501L29.4257 24.871L23.6092 35.136C22.901 36.372 22.7353 37.8191 23.112 39.1908C23.4887 40.5624 24.3777 41.708 25.6284 42.4165C25.7037 42.4617 25.7791 42.5069 25.8695 42.5371C25.8695 42.5371 25.8846 42.5371 25.8846 42.5521C26.0955 42.6576 26.3065 42.7481 26.5174 42.8235C27.527 43.1701 28.627 43.2154 29.6818 42.9139C31.0531 42.5371 32.1983 41.6477 32.9065 40.3966L36.6887 33.7342L43.4394 34.2165L61.401 52.184C62.2901 53.0734 62.2901 54.5505 61.3859 55.4399ZM62.0038 48.5212L45.1572 31.6691C45.127 31.639 45.0969 31.6088 45.0517 31.5787C44.8106 31.3827 44.5092 31.2471 44.1928 31.232L35.9353 30.6441C35.3627 30.5989 34.7901 30.9155 34.5188 31.4129L30.2846 38.9044C29.9832 39.447 29.4859 39.8238 28.8832 39.9897C28.2805 40.1555 27.6627 40.0801 27.1202 39.7786C26.5777 39.4772 26.201 38.9797 26.0353 38.3768C25.8695 37.7739 25.9448 37.1559 26.2462 36.6132L31.912 26.6045L34.2024 25.9413C34.2174 25.9413 34.2325 25.9262 34.2476 25.9262L42.8216 23.4541H53.1887L66.1175 39.8992L62.0038 48.5212Z" fill="#262626"/>
<path d="M76.681 32.2419L63.7975 15.4954C63.3153 14.8774 62.4564 14.7267 61.7933 15.1487L53.4755 20.4395H52.6016L53.1892 23.4542L66.118 39.8992L69.1166 40.6378L76.4701 34.307C77.0879 33.7945 77.1783 32.8901 76.681 32.2419ZM68.107 37.5327L56.1427 22.3237L62.2454 18.4347L73.4262 32.9504L68.107 37.5327Z" fill="#CA0100"/>
<path d="M26.5367 20.952L25.06 20.545L16.5765 15.1487C15.9285 14.7417 15.0696 14.8774 14.5874 15.4803L0.332637 33.1313C-0.179692 33.7643 -0.089281 34.6989 0.528527 35.2265L8.0025 41.6628L9.04223 43.0495L11.0313 40.6679L24.9998 23.6501L26.5367 20.952ZM8.92168 38.4672L3.6025 33.8849L16.0943 18.4046L22.197 22.2784L8.92168 38.4672Z" fill="#CA0100"/>
</g>
<defs>
<clipPath id="clip0_2157_34648">
<rect width="77" height="76" fill="white"/>
</clipPath>
</defs>
</svg>
