<svg width="78" height="78" viewBox="0 0 78 78" fill="none" xmlns="http://www.w3.org/2000/svg">
<path d="M23.0089 33.3864V33.4312C22.8299 36.7888 24.7102 39.9226 27.7992 41.4448H27.844C28.9184 41.982 29.8138 42.8326 30.3958 43.9071V43.9518C31.9627 46.9066 35.1861 48.7421 38.6333 48.563H38.678C39.9316 48.4735 41.1851 48.8316 42.2148 49.5032C45.1248 51.3387 48.8406 51.3387 51.7506 49.5032C52.825 48.8316 54.0338 48.5183 55.2873 48.563H55.3321C58.7793 48.7421 62.0026 46.9514 63.5695 43.9518C64.1515 42.8774 65.0469 42.0268 66.1214 41.4895H66.1661C69.2552 39.9674 71.1355 36.8336 70.9564 33.4759V33.4312C70.9116 32.2672 71.225 31.1032 71.8966 30.1183C73.8216 27.2978 73.8216 23.582 71.8966 20.8063C71.225 19.8214 70.9116 18.6574 70.9564 17.4934V17.4487C71.1355 14.091 69.2552 10.9572 66.1661 9.43504H66.1214C65.0469 8.89781 64.1515 8.0472 63.5695 6.97275V6.92798C62.0026 3.97324 58.7793 2.13771 55.3321 2.31679H55.2873C54.0338 2.40633 52.7802 2.04818 51.7506 1.37664C48.8406 -0.458881 45.1248 -0.458881 42.2148 1.37664C41.1403 2.04818 39.9316 2.36156 38.678 2.31679H38.6333C35.1861 2.13771 31.9627 3.92847 30.3958 6.92798C29.8138 8.00244 28.9184 8.85304 27.844 9.39027H27.7992C24.7102 10.9124 22.8299 14.0462 23.0089 17.4039V17.4487C23.0537 18.6127 22.7403 19.7766 22.0688 20.7616C20.1437 23.582 20.1437 27.2978 22.0688 30.0735C22.7403 31.0136 23.0537 32.1776 23.0089 33.3864ZM24.4415 22.3732C25.4712 20.8511 25.9637 19.0603 25.8742 17.2248V17.1801C25.7846 14.9416 27.0381 12.8822 29.0527 11.9421H29.0975C30.754 11.1363 32.097 9.83796 32.9476 8.22628V8.18151C33.9773 6.21168 36.171 5.00292 38.4542 5.13723H38.499C40.3345 5.22677 42.17 4.77908 43.7369 3.79416C45.7068 2.54063 48.2138 2.54063 50.1837 3.79416C51.7506 4.77908 53.5861 5.27153 55.4216 5.13723H55.4664C57.7944 5.00292 59.9433 6.21168 60.9729 8.18151V8.22628C61.8236 9.83796 63.1666 11.1363 64.8231 11.9421H64.8678C66.9272 12.927 68.136 14.9864 68.0464 17.1801V17.2248C67.9569 19.0603 68.4494 20.8511 69.479 22.3732C70.7326 24.2088 70.7326 26.5815 69.479 28.417C68.4494 29.9392 67.9569 31.7299 68.0464 33.5655V33.6102C68.1807 35.8039 66.9272 37.8633 64.8678 38.8482C63.2114 39.654 61.8683 40.9523 61.0177 42.564C59.988 44.5338 57.7944 45.7426 55.5111 45.6083H55.4664C53.6309 45.5187 51.7953 45.9664 50.2284 46.9514C48.2586 48.2049 45.7515 48.2049 43.7817 46.9514C42.3491 46.056 40.6926 45.5635 39.0362 45.5635C38.8571 45.5635 38.7228 45.5635 38.5437 45.5635H38.499C36.2158 45.6978 34.0669 44.5338 32.9924 42.5192V42.4745C32.1418 40.8628 30.7987 39.5645 29.1423 38.7586H29.0975C27.0381 37.7737 25.8294 35.7144 25.9189 33.5207V33.4759C26.0085 31.6404 25.516 29.8496 24.4863 28.3275C23.188 26.5815 23.188 24.2088 24.4415 22.3732Z" fill="#CA0100"/>
<path d="M52.2479 31.1024C52.3374 31.4158 52.5165 31.6844 52.7851 31.8187C52.9642 31.953 53.188 31.9978 53.4119 31.9978C53.8148 31.9978 54.173 31.774 54.3968 31.4606L62.679 18.0747C62.9029 17.7165 62.9029 17.2688 62.7238 16.9107C62.5447 16.5525 62.1418 16.2839 61.7389 16.2839H61.6941C61.2912 16.2839 60.9331 16.5078 60.7092 16.8212L52.3822 30.2071C52.2031 30.4757 52.1584 30.7891 52.2479 31.1024Z" fill="#262626"/>
<path d="M53.7299 24.6114C55.6998 24.6114 57.3115 22.8206 57.3115 20.5822C57.3115 18.3885 55.6998 16.553 53.7299 16.553C51.7601 16.553 50.1484 18.3437 50.1484 20.5822C50.1484 22.8206 51.7601 24.6114 53.7299 24.6114ZM53.7299 18.9257C54.4015 18.9257 54.9835 19.6868 54.9835 20.6269C54.9835 21.5223 54.4015 22.3282 53.7299 22.3282C53.0584 22.3282 52.4764 21.5671 52.4764 20.6269C52.4764 19.6868 53.0584 18.9257 53.7299 18.9257Z" fill="#262626"/>
<path d="M34.1823 31.5455H31.6846V19.2334L28 20.5183V18.3592L33.8623 16.158H34.1823V31.5455Z" fill="#262626"/>
<path d="M35.8543 35L34.5022 34.1785C34.9013 33.5395 35.1731 32.9813 35.3176 32.5039C35.469 32.0334 35.5481 31.5525 35.555 31.061V29.0704H37.8153L37.8049 30.9135C37.7981 31.6578 37.6123 32.4021 37.2476 33.1463C36.8898 33.8976 36.4254 34.5155 35.8543 35Z" fill="#262626"/>
<path d="M45.4817 25.1314C44.6422 26.0371 43.6617 26.49 42.5402 26.49C41.2191 26.49 40.1664 26.0196 39.382 25.0787C38.5976 24.1308 38.2054 22.888 38.2054 21.3503C38.2054 20.3392 38.4049 19.4229 38.804 18.6014C39.2031 17.7799 39.7707 17.141 40.507 16.6846C41.2432 16.2282 42.0964 16 43.0666 16C44.5803 16 45.781 16.5758 46.6686 17.7273C47.5562 18.8788 48 20.42 48 22.3509V23.0671C48 25.8335 47.3876 27.9435 46.1629 29.3969C44.9381 30.8503 43.1113 31.5876 40.6824 31.6086H40.3831V29.4917H40.7444C42.2237 29.4706 43.359 29.109 44.1503 28.4069C44.9415 27.6977 45.3854 26.6059 45.4817 25.1314ZM43.0666 24.4889C43.5689 24.4889 44.0402 24.3415 44.4805 24.0466C44.9209 23.7517 45.2615 23.3444 45.5023 22.8248V21.8243C45.5023 20.6938 45.2753 19.7846 44.8211 19.0965C44.367 18.4084 43.7787 18.0643 43.0563 18.0643C42.3338 18.0643 41.7558 18.3697 41.3223 18.9806C40.8957 19.5844 40.6824 20.3498 40.6824 21.2766C40.6824 22.2385 40.8992 23.0144 41.3326 23.6042C41.7661 24.194 42.3441 24.4889 43.0666 24.4889Z" fill="#262626"/>
<path d="M57.75 27.6557C57.75 29.8493 59.3617 31.6849 61.3315 31.6849C63.3013 31.6849 64.913 29.8941 64.913 27.6557C64.913 25.462 63.3013 23.6265 61.3315 23.6265C59.3617 23.6265 57.75 25.462 57.75 27.6557ZM61.3315 29.3121C60.66 29.3121 60.078 28.551 60.078 27.6109C60.078 26.7155 60.66 25.9097 61.3315 25.9097C62.003 25.9097 62.585 26.6707 62.585 27.6109C62.585 28.551 62.003 29.3121 61.3315 29.3121Z" fill="#262626"/>
<path d="M77.4949 56.6218C75.5699 53.2193 71.3168 51.921 67.8696 53.667L56.5431 59.0393C54.9762 56.1293 51.9767 54.2938 48.6638 54.2043L38.1878 53.9356C36.5314 53.8909 34.9197 53.488 33.4423 52.7269L32.3679 52.1897C26.9061 49.3692 20.4146 49.3692 14.9976 52.1897L15.0423 49.7721C15.0423 48.9663 14.4156 48.2948 13.6545 48.2948L2.19367 47.8918C1.38784 47.8918 0.716302 48.5186 0.716302 49.2797L0 74.4846C0 75.2904 0.626764 75.9619 1.38783 75.9619L12.8487 76.2753H12.8934C13.6545 76.2753 14.326 75.6485 14.326 74.8875L14.3708 73.6787L17.3703 72.067C18.5343 71.4403 19.9221 71.306 21.1757 71.6641L38.9489 76.6335C38.9937 76.6335 38.9937 76.6335 39.0385 76.6782C40.3368 76.9468 41.635 77.0812 42.9333 77.0812C45.709 77.0812 48.4847 76.4992 50.9917 75.3352C51.0365 75.2904 51.126 75.2904 51.1708 75.2456L76.9577 58.5468C77.6292 58.1439 77.8531 57.2933 77.4949 56.6218ZM11.5056 73.3653L2.90998 73.1415L3.53674 50.8914L12.1324 51.1152L11.5056 73.3653ZM49.7382 72.7386C46.6044 74.1712 43.0676 74.5293 39.71 73.8578L21.9815 68.8884C19.9669 68.3064 17.8628 68.5751 16.0273 69.56L14.5051 70.3658L14.908 55.5473C19.7431 52.324 25.9212 52.0106 31.0696 54.6967L32.1441 55.2339C34.0243 56.1741 36.0389 56.7113 38.1431 56.8009L48.619 57.0695C51.5737 57.159 54.036 59.2631 54.6628 62.1283L39.0832 61.6807C38.2774 61.6807 37.6059 62.3074 37.6059 63.0685C37.6059 63.8296 38.2326 64.5459 38.9937 64.5459L56.1849 65.0383H56.2297C56.9908 65.0383 57.6623 64.4116 57.6623 63.6505C57.6623 63.0237 57.6175 62.397 57.528 61.7702L69.1231 56.2636H69.1679C70.8243 55.413 72.7942 55.7264 74.182 56.9799L49.7382 72.7386Z" fill="#262626"/>
</svg>
